Coordinates
version=1
nRows=12
nColumns=24
inDegrees=yes

Units are S.I. units (second, meters, Newtons, ...)
Angles are in degrees.

endheader
time	pelvis_tilt	pelvis_list	pelvis_rotation	pelvis_tx	pelvis_ty	pelvis_tz	hip_flexion_r	hip_adduction_r	hip_rotation_r	knee_angle_r	ankle_angle_r	subtalar_angle_r	mtp_angle_r	hip_flexion_l	hip_adduction_l	hip_rotation_l	knee_angle_l	ankle_angle_l	subtalar_angle_l	mtp_angle_l	lumbar_extension	lumbar_bending	lumbar_rotation
      4.62000000	     13.16594506	     -0.03663830	     -1.66832607	      0.15478098	      0.73144876	     -0.25529574	    -28.37791138	     -0.22116237	     -7.61222327	    -24.77392322	     28.04526452	     29.34232747	      0.00000000	     14.17646324	      4.54006386	     -2.79484067	    -15.39079088	     13.79735295	     -0.15954208	      0.00000000	    -34.00544330	      1.75420358	      9.46378214
      4.62500000	     13.25425342	      0.48523303	     -1.65129706	      0.16308535	      0.73146493	     -0.25589749	    -27.97362224	     -1.02897245	     -7.91581058	    -26.91696978	     26.51215234	     29.71231488	      0.00000000	     14.08924205	      5.27201025	     -2.28609149	    -16.55592512	     13.48960020	     -1.11139679	      0.00000000	    -33.96740525	      1.25371760	      9.27983433
      4.63000000	     13.34166049	      1.00939029	     -1.62052354	      0.17134178	      0.73158431	     -0.25652567	    -27.49234694	     -1.84059889	     -8.18199487	    -29.12782822	     24.73920353	     29.93904933	      0.00000000	     13.99373700	      6.00910948	     -1.79566846	    -17.74856507	     13.21688497	     -1.97105889	      0.00000000	    -33.94381542	      0.76549797	      9.09372925
      4.63500000	     13.42038827	      1.53544930	     -1.57077935	      0.17953774	      0.73179432	     -0.25715896	    -26.92264309	     -2.64746353	     -8.40868664	    -31.40045172	     22.75541887	     30.02500540	      0.00000000	     13.88092095	      6.75128495	     -1.31424694	    -18.91920340	     13.01355777	     -2.75736156	      0.00000000	    -33.92757555	      0.28460577	      8.88808653
      4.64000000	     13.48707561	      2.05702457	     -1.51239690	      0.18766660	      0.73209545	     -0.25779047	    -26.26344061	     -3.44522238	     -8.57763133	    -33.71234942	     20.58590001	     29.94176867	      0.00000000	     13.74471839	      7.48679067	     -0.85967413	    -20.03865417	     12.88818228	     -3.43456009	      0.00000000	    -33.91424105	     -0.18189340	      8.66417188
      4.64500000	     13.54229197	      2.56428706	     -1.44277057	      0.19569433	      0.73248142	     -0.25839856	    -25.51456048	     -4.22059064	     -8.70866681	    -36.05125535	     18.29182249	     29.64831338	      0.00000000	     13.59082878	      8.19575450	     -0.47966669	    -21.10680222	     12.82003964	     -3.96268289	      0.00000000	    -33.91350985	     -0.63276319	      8.45662754
      4.65000000	     13.57014602	      3.06313157	     -1.37322948	      0.20364955	      0.73293347	     -0.25898498	    -24.66646302	     -4.97887862	     -8.77396220	    -38.38705378	     15.94201454	     29.16953682	      0.00000000	     13.41077140	      8.89155479	     -0.11579253	    -22.07557350	     12.87223490	     -4.40221004	      0.00000000	    -33.89549972	     -1.06934518	      8.22872865
      4.65500000	     13.58548236	      3.54737129	     -1.30097483	      0.21151898	      0.73346412	     -0.25954768	    -23.74480960	     -5.71245985	     -8.79445722	    -40.69119831	     13.61533475	     28.48572601	      0.00000000	     13.19521391	      9.55885254	      0.17853707	    -22.95342220	     13.01378282	     -4.69627860	      0.00000000	    -33.87926347	     -1.48699743	      8.00698373
      4.66000000	     13.56197666	      4.00940701	     -1.22816326	      0.21929311	      0.73404038	     -0.26007203	    -22.71715141	     -6.41064123	     -8.75791643	    -42.96646778	     11.38992955	     27.60389238	      0.00000000	     12.95512159	     10.18875591	      0.43160296	    -23.69655868	     13.24561398	     -4.90066528	      0.00000000	    -33.83996386	     -1.88192929	      7.77407321
      4.66500000	     13.51145157	      4.44946713	     -1.15645288	      0.22697770	      0.73466439	     -0.26054611	    -21.61288155	     -7.06438889	     -8.65562190	    -45.16895691	      9.35910924	     26.55417806	      0.00000000	     12.68934536	     10.78165598	      0.64846357	    -24.33486226	     13.57652060	     -4.99458114	      0.00000000	    -33.78143724	     -2.25663690	      7.55218531
      4.67000000	     13.43837112	      4.86465402	     -1.08408267	      0.23457399	      0.73534161	     -0.26098506	    -20.43902240	     -7.67933360	     -8.51925408	    -47.29793848	      7.56779296	     25.35916899	      0.00000000	     12.38316926	     11.33093797	      0.81045206	    -24.84279563	     13.97907330	     -4.98310730	      0.00000000	    -33.71158668	     -2.60558697	      7.32911571
      4.67500000	     13.36255167	      5.26835405	     -1.00854397	      0.24209778	      0.73608156	     -0.26138291	    -19.23230901	     -8.26434905	     -8.36022546	    -49.33135066	      6.09272367	     24.04928821	      0.00000000	     12.01425047	     11.85215367	      0.91928568	    -25.22015059	     14.44471296	     -4.90356881	      0.00000000	    -33.64907720	     -2.93933036	      7.07364260
